<?xml version="1.0" encoding="iso-8859-1"?>
<!-- Generator: Adobe Illustrator 21.0.0, SVG Export Plug-In . SVG Version: 6.00 Build 0)  -->
<svg version="1.1" id="Capa_1" xmlns="http://www.w3.org/2000/svg" xmlns:xlink="http://www.w3.org/1999/xlink" x="0px" y="0px"
	 viewBox="0 0 512.242 512.242" style="enable-background:new 0 0 512.242 512.242;" xml:space="preserve">
<path style="fill:#98D9D5;" d="M172.672,258.219c-2.945-3.814-48.703-67.993,9.441-133.711c0,0,21.761,57.227,26.042,35.486
	c17.118-86.933,78.743-118.947,78.743-118.947s19.989,29.915,22.318,69.469c2.232,37.922-2.48,47.473-2.48,47.473
	s16.123-39.479,71.922-50.974c0,0-13.025,36.981,0,64.966c13.016,27.993,8.291,60.751-21.475,86.238"/>
<g>
	<path style="fill:#84BDB9;" d="M193.842,151.006c-6.097-11.689-11.729-26.498-11.729-26.498
		c-58.144,65.718-12.386,129.897-9.441,133.711h30.002C200.128,254.922,165.605,206.518,193.842,151.006z"/>
</g>
<g>
	<path style="fill:#E63950;" d="M210.624,258.219c-6.464-10.575-16.265-35.782-16.312-48.176
		c8.394,5.895,17.452,10.845,26.947,14.726c4.55-31.041,18.841-60.583,40.356-83.418c0.662,28.69,5.187,57.289,13.414,84.782
		c23.117-7.059,39.933-26.521,55.422-45.077c1.959,24.784-4.866,56.635-18.891,77.163"/>
</g>
<rect x="252.839" y="322.514" transform="matrix(5.387894e-08 1 -1 5.387894e-08 706.7795 166.8076)" style="fill:#E8D4B2;" width="34.293" height="228.56"/>
<g>
	<path style="fill:#F7CF69;" d="M119.78,502.45L119.78,502.45c-8.201-4.735-11.011-15.222-6.276-23.423l121.235-209.985
		l29.699,17.147L143.203,496.174C138.468,504.375,127.981,507.185,119.78,502.45z"/>
	<path style="fill:#F7CF69;" d="M422.736,502.45L422.736,502.45c8.201-4.735,11.011-15.222,6.276-23.423L307.777,269.042
		l-29.699,17.147l121.235,209.985C404.048,504.375,414.535,507.185,422.736,502.45z"/>
</g>
<path style="fill:#915A55;" d="M304.273,369.269h-66.03c-61.331,0-111.05-49.719-111.05-111.05v0h288.13v0
	C415.323,319.55,365.604,369.269,304.273,369.269z"/>
<path style="fill:#7A4C43;" d="M157.195,258.219L157.195,258.219h-30.002l0,0c0,61.332,49.719,111.05,111.05,111.05h30.002
	C206.914,369.269,157.195,319.55,157.195,258.219z"/>
<circle style="fill:#484D56;" cx="414.079" cy="464.191" r="40.518"/>
<circle style="fill:#606673;" cx="414.079" cy="464.191" r="12.233"/>
<g>
	<path d="M462.097,464.191c0-26.478-21.541-48.019-48.018-48.019c-4.085,0-8.052,0.516-11.841,1.48l-34.345-59.487
		c12.148-7.716,22.948-17.639,31.69-29.437c2.466-3.328,1.767-8.025-1.562-10.491c-3.329-2.467-8.025-1.768-10.491,1.561
		c-19.472,26.28-50.597,41.969-83.258,41.969h-66.03c-54.575,0-99.424-42.442-103.281-96.05h272.595
		c-0.701,9.827-2.783,19.434-6.216,28.648c-1.446,3.881,0.528,8.2,4.41,9.646c3.882,1.444,8.199-0.528,9.646-4.41
		c4.928-13.227,7.426-27.151,7.426-41.385c0-4.142-3.357-7.5-7.5-7.5h-40.354c19.548-24.107,23.61-53.684,10.489-81.903
		c-11.548-24.809,0.157-58.976,0.274-59.309c0.898-2.55,0.354-5.387-1.424-7.424c-1.778-2.037-4.515-2.96-7.164-2.414
		c-28.935,5.96-47.916,18.984-59.833,30.922c0.03-5.776-0.141-12.563-0.608-20.516c-0.365-6.207-1.17-12.558-2.392-18.877
		c-0.786-4.066-4.712-6.725-8.787-5.94c-4.066,0.787-6.726,4.721-5.939,8.788c1.097,5.672,1.817,11.361,2.144,16.91
		c1.919,32.595-1.498,43.026-1.819,43.921c-0.056,0.128-0.094,0.221-0.116,0.276c-1.527,3.739,0.182,8.016,3.864,9.674
		c3.687,1.658,8.02,0.102,9.805-3.521c0.077-0.155,0.178-0.374,0.297-0.665c1.128-2.539,14.406-30.576,54.351-43.16
		c-3.003,14.244-5.536,37.713,3.748,57.661c5.963,12.825,7.616,26.409,4.781,39.284c-2.942,13.36-10.443,25.556-22.296,36.292
		h-29.773c10.675-21.186,15.049-46.494,13.382-69.663c-0.421-5.845-8.291-10.704-12.803-5.303
		c-12.83,15.355-26.593,31.998-45.12,40.437c-6.571-24.452-10.252-49.481-10.913-74.839c-0.163-6.252-8.23-10.211-12.803-5.303
		c-20.322,21.809-34.567,48.849-40.695,77.972c-6.084-3.049-11.926-6.58-17.519-10.453c-4.711-3.262-11.406,1.08-11.285,6.476
		c0.204,9.133,2.982,18.225,6.02,26.763c1.66,4.667,3.464,9.348,5.509,13.913h-21.731c-7.815-12.109-34.075-60.245,3.368-111.617
		c1.22,2.832,2.606,5.939,4.083,9.056c8.656,18.269,14.529,24.85,21.67,24.231c2.897-0.245,8.021-1.994,9.784-10.945
		c8.439-42.861,28.294-71.468,43.464-87.919c10.078-10.929,19.494-18.111,25.332-22.064c1.956,3.617,4.473,8.675,6.977,14.841
		c1.559,3.837,5.933,5.686,9.771,4.127c3.838-1.558,5.687-5.933,4.128-9.771c-5.878-14.474-11.802-23.405-12.051-23.778
		c-2.125-3.179-6.301-4.252-9.693-2.488c-0.677,0.351-16.768,8.827-34.988,28.422c-15.768,16.958-36.124,45.753-46.054,88.279
		c-3.913-6.933-8.983-17.968-13.276-29.251c-0.934-2.453-3.082-4.241-5.665-4.711c-2.582-0.471-5.223,0.442-6.963,2.408
		c-32.227,36.424-33.769,72.523-29.389,96.393c2.682,14.616,7.799,26.593,12.139,34.788h-32.053c-4.142,0-7.5,3.358-7.5,7.5
		c0,41.966,21.92,78.907,54.911,99.98l-67.595,117.078c-3.292,5.702-4.166,12.343-2.462,18.702
		c1.704,6.359,5.782,11.674,11.483,14.966c3.872,2.235,8.103,3.297,12.282,3.297c8.524,0,16.827-4.421,21.386-12.318l22.219-38.484
		h194.229c-0.052,0.911-0.084,1.828-0.084,2.751c0,25.896,20.608,47.056,46.284,47.974c0.618,0.046,1.238,0.077,1.859,0.077
		c0.646,0,1.292-0.035,1.939-0.085C441.666,511.071,462.097,489.977,462.097,464.191z M207.295,232.819
		c-0.891-2.504-1.8-5.079-2.617-7.695c4.729,2.521,9.59,4.796,14.587,6.877c3.451,1.437,8.67-1.585,9.226-5.238
		c3.629-23.841,12.73-46.392,26.714-65.801c1.913,22.74,6.109,45.262,12.592,67.166c1.116,3.77,5.295,6.491,9.226,5.238
		c18.482-5.893,32.915-18.204,45.775-32.113c-1.476,17.375-6.47,34.729-15.362,49.466h-92.423
		C211.949,244.986,209.469,238.929,207.295,232.819z M388.384,423.657c-5.659,3.6-10.521,8.344-14.245,13.914l-37.704-65.304
		c6.291-1.786,12.42-4.077,18.319-6.858L388.384,423.657z M304.273,376.769c5.634,0,11.227-0.415,16.742-1.21l21.124,36.588H200.376
		l21.112-36.567c5.475,0.778,11.068,1.189,16.755,1.189H304.273z M136.708,492.424c-2.661,4.606-8.572,6.189-13.178,3.531
		c-4.606-2.66-6.19-8.571-3.531-13.178l67.736-117.322c5.859,2.771,11.978,5.079,18.312,6.869L136.708,492.424z M191.716,427.147
		H350.8l11.139,19.293H180.577L191.716,427.147z M414.08,497.209c-18.206,0-33.019-14.812-33.019-33.018
		c0-18.207,14.813-33.019,33.019-33.019s33.018,14.812,33.018,33.019C447.097,482.397,432.286,497.209,414.08,497.209z"/>
	<path d="M414.08,444.458c-10.881,0-19.733,8.853-19.733,19.733s8.853,19.733,19.733,19.733s19.732-8.852,19.732-19.733
		S424.961,444.458,414.08,444.458z M414.08,468.924c-2.61,0-4.733-2.123-4.733-4.733s2.123-4.733,4.733-4.733
		c2.609,0,4.732,2.124,4.732,4.733S416.689,468.924,414.08,468.924z"/>
	<path d="M107.894,125.524c-2.588-3.183-2.466-5.553-1.944-10.611c0.586-5.687,1.39-13.475-5.227-21.613
		c-6.617-8.138-14.406-8.941-20.092-9.528c-5.059-0.521-7.404-0.886-9.993-4.07s-2.467-5.554-1.945-10.613
		c0.586-5.687,1.389-13.476-5.228-21.614c-2.613-3.214-7.337-3.701-10.551-1.088c-3.214,2.613-3.701,7.337-1.088,10.551
		c2.588,3.184,2.467,5.554,1.945,10.613c-0.586,5.687-1.389,13.476,5.228,21.614c6.618,8.138,14.406,8.941,20.093,9.528
		c5.059,0.521,7.404,0.886,9.992,4.07c2.587,3.183,2.466,5.553,1.944,10.611c-0.587,5.687-1.39,13.475,5.227,21.613
		c1.482,1.823,3.644,2.769,5.824,2.769c1.663,0,3.336-0.55,4.727-1.681C110.02,133.461,110.506,128.738,107.894,125.524z"/>
	<path d="M81.265,45.198c-0.586,5.687-1.389,13.476,5.228,21.614c6.617,8.138,14.405,8.941,20.092,9.528
		c5.059,0.522,7.404,0.887,9.992,4.07c2.588,3.183,2.466,5.553,1.944,10.611c-0.586,5.687-1.39,13.475,5.227,21.612
		c1.482,1.823,3.644,2.769,5.824,2.769c1.663,0,3.336-0.55,4.727-1.681c3.214-2.613,3.701-7.337,1.088-10.551
		c-2.587-3.183-2.466-5.553-1.944-10.61c0.587-5.687,1.39-13.475-5.227-21.613c-6.617-8.138-14.405-8.941-20.092-9.528
		c-5.059-0.522-7.404-0.887-9.992-4.07s-2.467-5.554-1.945-10.613c0.586-5.687,1.389-13.476-5.228-21.614
		c-2.613-3.214-7.337-3.701-10.551-1.088c-3.214,2.613-3.701,7.337-1.088,10.551C81.908,37.769,81.786,40.139,81.265,45.198z"/>
	<path d="M108.758,22.844c-0.586,5.687-1.389,13.476,5.228,21.614c6.617,8.138,14.406,8.941,20.092,9.528
		c5.059,0.522,7.404,0.887,9.993,4.07c2.587,3.183,2.466,5.553,1.944,10.61c-0.587,5.687-1.39,13.475,5.227,21.613
		c1.482,1.823,3.644,2.769,5.824,2.769c1.663,0,3.336-0.55,4.727-1.681c3.214-2.613,3.701-7.337,1.088-10.551
		c-2.588-3.183-2.466-5.553-1.944-10.611c0.586-5.687,1.39-13.475-5.227-21.612c-6.617-8.138-14.406-8.941-20.092-9.528
		c-5.059-0.522-7.404-0.887-9.993-4.07c-2.588-3.184-2.467-5.554-1.945-10.612c0.586-5.687,1.389-13.476-5.228-21.614
		c-2.613-3.214-7.337-3.7-10.551-1.088c-3.214,2.613-3.701,7.337-1.088,10.551C109.401,15.415,109.279,17.786,108.758,22.844z"/>
</g>
<g>
</g>
<g>
</g>
<g>
</g>
<g>
</g>
<g>
</g>
<g>
</g>
<g>
</g>
<g>
</g>
<g>
</g>
<g>
</g>
<g>
</g>
<g>
</g>
<g>
</g>
<g>
</g>
<g>
</g>
</svg>
